<svg width="186" height="228" viewBox="0 0 186 228" fill="none" xmlns="http://www.w3.org/2000/svg">
<path d="M144.667 20.6667H175.667C178.407 20.6667 181.036 21.7554 182.973 23.6932C184.911 25.6311 186 28.2594 186 31V217C186 219.741 184.911 222.369 182.973 224.307C181.036 226.245 178.407 227.333 175.667 227.333H10.3333C7.59276 227.333 4.96444 226.245 3.02656 224.307C1.08869 222.369 0 219.741 0 217V31C0 28.2594 1.08869 25.6311 3.02656 23.6932C4.96444 21.7554 7.59276 20.6667 10.3333 20.6667H41.3333V0H62V20.6667H124V0H144.667V20.6667ZM144.667 41.3333V62H124V41.3333H62V62H41.3333V41.3333H20.6667V206.667H165.333V41.3333H144.667ZM41.3333 82.6667H144.667V103.333H41.3333V82.6667ZM41.3333 124H144.667V144.667H41.3333V124Z" fill="url(#paint0_linear_628_666)"/>
<defs>
<linearGradient id="paint0_linear_628_666" x1="93" y1="0" x2="93" y2="227.333" gradientUnits="userSpaceOnUse">
<stop stop-color="#FF3B9A"/>
<stop offset="1" stop-color="#721093"/>
</linearGradient>
</defs>
</svg>
